<svg width="24" height="24" viewBox="0 0 24 24" fill="none" xmlns="http://www.w3.org/2000/svg">
<path d="M13.0001 3.5C13.0001 2.94772 12.5524 2.5 12.0001 2.5C11.4478 2.5 11.0001 2.94771 11.0001 3.5L11 18.6486C10.2871 17.7671 9.46331 16.3853 8.22689 14.3246L7.16701 12.5581C7.04998 12.363 6.93679 12.1743 6.8274 11.9916L6.82251 11.9834C6.64175 11.6839 6.31985 11.5015 5.97005 11.5002L5.96156 11.5002C5.9617 11.5002 5.96194 11.5002 5.95873 11.5002C5.38364 11.5045 5.00397 11.9828 5.00003 12.5C4.99679 12.9259 5.24095 13.2353 5.45202 13.5871L6.5119 15.3536L6.55885 15.4318C8.97838 19.4645 10.1996 21.5 11.9999 21.5C13.8001 21.5 15.0213 19.4645 17.4409 15.4318L17.4878 15.3536L18.5477 13.5871C18.7586 13.2355 19.0033 12.9256 19 12.5C18.9961 11.9828 18.6161 11.5045 18.041 11.5002C18.0375 11.5002 18.0381 11.5002 18.0382 11.5002L18.0296 11.5002C17.6799 11.5015 17.358 11.6839 17.1772 11.9834L17.1723 11.9916C17.0629 12.1743 16.9497 12.363 16.8327 12.5581L15.7728 14.3246C14.5366 16.3849 13.7129 17.7666 13 18.6482L13.0001 3.5Z" fill="white"/>
</svg>
