<svg width="60" height="60" viewBox="0 0 60 60" fill="none" xmlns="http://www.w3.org/2000/svg">
<path fill-rule="evenodd" clip-rule="evenodd" d="M0 30C0 13.47 13.47 0 30 0C46.53 0 60 13.47 60 30C60 46.53 46.53 60 30 60C13.47 60 0 46.53 0 30ZM18.8856 18.7205C19.6548 17.9513 20.9058 17.9551 21.6797 18.7291L30.0878 27.1372L38.4443 18.7806C39.2135 18.0114 40.4645 18.0153 41.2384 18.7892C42.0124 19.5632 42.0162 20.8141 41.247 21.5833L32.8905 29.9398L41.2986 38.3479C42.0725 39.1219 42.0764 40.3728 41.3072 41.142C40.538 41.9112 39.287 41.9074 38.5131 41.1335L30.105 32.7254L21.7484 41.0819C20.9792 41.8511 19.7283 41.8472 18.9543 41.0733C18.1804 40.2994 18.1765 39.0484 18.9457 38.2792L27.3023 29.9227L18.8942 21.5146C18.1202 20.7406 18.1164 19.4897 18.8856 18.7205Z" fill="#FAFAFA"/>
</svg>
