<svg width="24" height="24" viewBox="0 0 24 24" fill="none" xmlns="http://www.w3.org/2000/svg">
<g clip-path="url(#clip0_586_3711)">
<path fill-rule="evenodd" clip-rule="evenodd" d="M5.79289 5.20711C5.40237 4.81658 5.40237 4.18342 5.79289 3.79289C6.18342 3.40237 6.81658 3.40237 7.20711 3.79289L9.18248 5.76827C9.18227 5.76833 9.18269 5.7682 9.18248 5.76827L11.9136 8.4986C11.9134 8.49861 11.9139 8.4986 11.9136 8.4986L15.5014 12.0872C15.5014 12.0875 15.5014 12.087 15.5014 12.0872L19.0262 15.6111C19.026 15.6113 19.0263 15.611 19.0262 15.6111L21.2071 17.7929C21.5976 18.1834 21.5976 18.8166 21.2071 19.2071C20.8166 19.5976 20.1834 19.5976 19.7929 19.2071L17.4257 16.84C16.1973 17.7309 15.3641 18.2138 13.5232 18.5291C12.8647 18.6419 11.1432 18.6419 10.4847 18.5291C8.37587 18.1679 7.58938 17.5867 6.01639 16.4243C5.1112 15.7554 4.28298 15.0296 3.58411 14.363C2.53072 13.3583 2.00403 12.856 2.00403 11.9997C2.00403 11.1434 2.53072 10.6411 3.58411 9.63636C4.28298 8.96978 5.1112 8.24398 6.01639 7.57507C6.48466 7.22903 6.88323 6.9345 7.26774 6.68195L5.79289 5.20711ZM9.8336 9.24781C9.01997 9.88916 8.49762 10.8836 8.49762 12C8.49762 13.9343 10.0657 15.5024 12.0001 15.5024C13.1165 15.5024 14.1109 14.9801 14.7523 14.1665L13.3142 12.7284C13.0579 13.19 12.5654 13.5023 12.0001 13.5023C11.1704 13.5023 10.4978 12.8297 10.4978 12C10.4978 11.4346 10.8101 10.9422 11.2716 10.6858L9.8336 9.24781Z" fill="#8D969F"/>
<path d="M20.5173 14.2738L11.6329 5.38944C12.3383 5.37518 13.125 5.40214 13.5232 5.47032C15.632 5.83148 16.4185 6.41268 17.9915 7.57507C18.8967 8.24398 19.7249 8.96978 20.4238 9.63636C21.4772 10.6411 22.0039 11.1434 22.0039 11.9997C22.0039 12.8302 21.5083 13.3278 20.5173 14.2738Z" fill="#8D969F"/>
</g>
<defs>
<clipPath id="clip0_586_3711">
<rect width="24" height="24" fill="white"/>
</clipPath>
</defs>
</svg>
