<svg width="169" height="59" viewBox="0 0 169 59" fill="none" xmlns="http://www.w3.org/2000/svg">
<path fill-rule="evenodd" clip-rule="evenodd" d="M32.948 11.8494C34.0021 10.8419 35.7111 10.8419 36.7652 11.8494L38.6711 13.6712C38.6726 13.6726 38.6726 13.675 38.6711 13.6764C38.6697 13.6779 38.6697 13.6802 38.6711 13.6816L49.1158 23.6654C49.6597 24.1853 49.6597 25.0541 49.1158 25.574L47.2091 27.3965C46.6988 27.8843 45.895 27.8843 45.3847 27.3965L35.7634 18.1998C35.2531 17.712 34.4493 17.712 33.939 18.1998L24.3171 27.3971C23.8068 27.8849 23.003 27.8849 22.4927 27.3971L20.586 25.5745C20.0421 25.0546 20.0421 24.1858 20.586 23.6659L32.948 11.8494ZM10.9038 27.2333C11.4308 27.7371 12.2818 27.7335 12.8045 27.2252L25.1081 15.2604C25.6308 14.7521 25.6273 13.9316 25.1002 13.4278L23.1917 11.6033C22.6647 11.0995 21.8137 11.1031 21.291 11.6114L8.9874 23.5762C8.4647 24.0845 8.46821 24.905 8.99524 25.4088L10.9038 27.2333Z" fill="white"/>
<path fill-rule="evenodd" clip-rule="evenodd" d="M32.9954 46.3166C34.0495 47.3242 35.7586 47.3242 36.8127 46.3166L38.7186 44.4948C38.72 44.4934 38.72 44.491 38.7186 44.4896C38.7171 44.4882 38.7171 44.4858 38.7186 44.4844L49.1632 34.5006C49.7071 33.9807 49.7071 33.112 49.1632 32.592L47.2565 30.7695C46.7462 30.2817 45.9424 30.2817 45.4321 30.7695L35.8108 39.9662C35.3005 40.454 34.4967 40.454 33.9864 39.9662L24.3645 30.769C23.8542 30.2812 23.0504 30.2812 22.5401 30.769L20.6334 32.5915C20.0895 33.1114 20.0895 33.9802 20.6334 34.5001L32.9954 46.3166ZM23.1448 46.6725C22.6178 47.1763 21.7668 47.1727 21.2441 46.6644L8.94052 34.6996C8.41782 34.1913 8.42133 33.3708 8.94836 32.867L10.8569 31.0425C11.3839 30.5387 12.2349 30.5423 12.7576 31.0506L25.0612 43.0154C25.5839 43.5237 25.5804 44.3442 25.0534 44.848L23.1448 46.6725Z" fill="white"/>
<path d="M148.255 38.8405C148.079 38.8405 147.929 38.7789 147.806 38.6557C147.683 38.5325 147.621 38.3828 147.621 38.2068V25.7445C147.621 25.5685 147.683 25.4189 147.806 25.2957C147.929 25.1725 148.079 25.1109 148.255 25.1109H150.314C150.49 25.1109 150.64 25.1725 150.763 25.2957C150.886 25.4189 150.948 25.5685 150.948 25.7445V26.6423C151.318 26.1494 151.81 25.7357 152.426 25.4013C153.06 25.0493 153.808 24.8644 154.671 24.8468C156.677 24.8116 158.077 25.5949 158.869 27.1967C159.274 26.4926 159.855 25.9294 160.611 25.5069C161.386 25.0669 162.24 24.8468 163.173 24.8468C164.088 24.8468 164.915 25.0581 165.654 25.4805C166.411 25.903 167.001 26.5454 167.423 27.4079C167.863 28.2528 168.084 29.3266 168.084 30.6291V38.2068C168.084 38.3828 168.022 38.5325 167.899 38.6557C167.775 38.7789 167.626 38.8405 167.45 38.8405H165.285C165.109 38.8405 164.959 38.7789 164.836 38.6557C164.713 38.5325 164.651 38.3828 164.651 38.2068V30.8403C164.651 30.0483 164.537 29.4234 164.308 28.9657C164.079 28.4905 163.771 28.156 163.384 27.9624C162.997 27.7688 162.565 27.672 162.09 27.672C161.703 27.672 161.316 27.7688 160.928 27.9624C160.541 28.156 160.224 28.4905 159.978 28.9657C159.731 29.4234 159.608 30.0483 159.608 30.8403V38.2068C159.608 38.3828 159.547 38.5325 159.423 38.6557C159.3 38.7789 159.15 38.8405 158.974 38.8405H156.809C156.616 38.8405 156.457 38.7789 156.334 38.6557C156.229 38.5325 156.176 38.3828 156.176 38.2068V30.8403C156.176 30.0483 156.052 29.4234 155.806 28.9657C155.56 28.4905 155.243 28.156 154.856 27.9624C154.468 27.7688 154.055 27.672 153.615 27.672C153.21 27.672 152.814 27.7776 152.426 27.9888C152.039 28.1824 151.722 28.5081 151.476 28.9657C151.23 29.4234 151.106 30.0483 151.106 30.8403V38.2068C151.106 38.3828 151.045 38.5325 150.921 38.6557C150.798 38.7789 150.649 38.8405 150.473 38.8405H148.255Z" fill="white"/>
<path d="M138.989 39.1054C137.58 39.1054 136.392 38.8589 135.424 38.3661C134.474 37.8732 133.743 37.1779 133.233 36.2802C132.74 35.3825 132.458 34.3352 132.388 33.1382C132.37 32.8214 132.361 32.4342 132.361 31.9765C132.361 31.5188 132.37 31.1316 132.388 30.8148C132.458 29.6002 132.749 28.5529 133.259 27.6728C133.787 26.7751 134.526 26.0798 135.477 25.5869C136.445 25.0941 137.616 24.8477 138.989 24.8477C140.361 24.8477 141.523 25.0941 142.474 25.5869C143.442 26.0798 144.181 26.7751 144.692 27.6728C145.22 28.5529 145.519 29.6002 145.589 30.8148C145.607 31.1316 145.616 31.5188 145.616 31.9765C145.616 32.4342 145.607 32.8214 145.589 33.1382C145.519 34.3352 145.228 35.3825 144.718 36.2802C144.225 37.1779 143.495 37.8732 142.527 38.3661C141.576 38.8589 140.397 39.1054 138.989 39.1054ZM138.989 36.4914C139.921 36.4914 140.643 36.201 141.154 35.6201C141.664 35.0217 141.946 34.1504 141.998 33.0062C142.016 32.7422 142.025 32.399 142.025 31.9765C142.025 31.5541 142.016 31.2108 141.998 30.9468C141.946 29.8202 141.664 28.9577 141.154 28.3593C140.643 27.7608 139.921 27.4616 138.989 27.4616C138.056 27.4616 137.334 27.7608 136.823 28.3593C136.313 28.9577 136.031 29.8202 135.979 30.9468C135.961 31.2108 135.952 31.5541 135.952 31.9765C135.952 32.399 135.961 32.7422 135.979 33.0062C136.031 34.1504 136.313 35.0217 136.823 35.6201C137.334 36.201 138.056 36.4914 138.989 36.4914Z" fill="white"/>
<path d="M122.83 39.106C121.915 39.106 121.105 38.9563 120.401 38.6571C119.714 38.3403 119.142 37.9002 118.685 37.3369C118.227 36.7737 117.875 36.1136 117.629 35.3567C117.382 34.5822 117.241 33.7373 117.206 32.822C117.188 32.5052 117.18 32.2235 117.18 31.9771C117.18 31.7131 117.188 31.4226 117.206 31.1058C117.241 30.2257 117.373 29.4072 117.602 28.6503C117.849 27.8934 118.201 27.2333 118.658 26.6701C119.134 26.0892 119.714 25.6404 120.401 25.3235C121.105 25.0067 121.915 24.8483 122.83 24.8483C123.78 24.8483 124.581 25.0155 125.233 25.3499C125.902 25.6668 126.456 26.0804 126.896 26.5909V20.7294C126.896 20.5534 126.949 20.4037 127.054 20.2805C127.178 20.1573 127.336 20.0957 127.53 20.0957H129.774C129.95 20.0957 130.1 20.1573 130.223 20.2805C130.346 20.4037 130.408 20.5534 130.408 20.7294V38.2083C130.408 38.3843 130.346 38.5339 130.223 38.6571C130.1 38.7803 129.95 38.8419 129.774 38.8419H127.688C127.495 38.8419 127.336 38.7803 127.213 38.6571C127.107 38.5339 127.054 38.3843 127.054 38.2083V37.2313C126.614 37.777 126.051 38.2259 125.365 38.5779C124.696 38.9299 123.851 39.106 122.83 39.106ZM123.807 36.2808C124.546 36.2808 125.136 36.1136 125.576 35.7792C126.016 35.4447 126.342 35.0223 126.553 34.5118C126.764 33.9838 126.878 33.4469 126.896 32.9012C126.914 32.5844 126.922 32.2499 126.922 31.8979C126.922 31.5283 126.914 31.185 126.896 30.8682C126.878 30.3401 126.755 29.8385 126.526 29.3632C126.298 28.8703 125.963 28.4655 125.523 28.1487C125.083 27.8318 124.511 27.6734 123.807 27.6734C123.068 27.6734 122.478 27.8406 122.038 28.1751C121.615 28.4919 121.307 28.9143 121.114 29.4424C120.92 29.9705 120.806 30.5513 120.771 31.185C120.753 31.7131 120.753 32.2411 120.771 32.7692C120.806 33.4029 120.92 33.9838 121.114 34.5118C121.307 35.0399 121.615 35.4711 122.038 35.8056C122.478 36.1224 123.068 36.2808 123.807 36.2808Z" fill="white"/>
<path d="M108.65 39.1054C106.697 39.1054 105.148 38.5421 104.004 37.4155C102.859 36.289 102.243 34.6872 102.155 32.6102C102.138 32.4342 102.129 32.2141 102.129 31.9501C102.129 31.6685 102.138 31.4484 102.155 31.29C102.226 29.9699 102.525 28.8257 103.053 27.8576C103.599 26.8895 104.347 26.1502 105.297 25.6398C106.248 25.1117 107.366 24.8477 108.65 24.8477C110.076 24.8477 111.273 25.1469 112.241 25.7454C113.209 26.3262 113.94 27.1447 114.433 28.2009C114.926 29.2394 115.172 30.4451 115.172 31.8181V32.3726C115.172 32.5486 115.11 32.6982 114.987 32.8214C114.864 32.9446 114.706 33.0062 114.512 33.0062H105.746C105.746 33.0062 105.746 33.0326 105.746 33.0854C105.746 33.1382 105.746 33.1822 105.746 33.2175C105.764 33.8335 105.878 34.4056 106.089 34.9337C106.318 35.4441 106.644 35.8578 107.066 36.1746C107.506 36.4914 108.026 36.6499 108.624 36.6499C109.117 36.6499 109.531 36.5794 109.865 36.4386C110.199 36.2802 110.472 36.1042 110.684 35.9106C110.895 35.7169 111.044 35.5585 111.132 35.4353C111.291 35.2241 111.414 35.1009 111.502 35.0657C111.608 35.0129 111.757 34.9865 111.951 34.9865H114.222C114.398 34.9865 114.538 35.0393 114.644 35.1449C114.767 35.2505 114.82 35.3825 114.802 35.5409C114.785 35.8226 114.635 36.1658 114.354 36.5706C114.09 36.9755 113.702 37.3715 113.192 37.7588C112.681 38.146 112.039 38.4717 111.264 38.7357C110.507 38.9821 109.636 39.1054 108.65 39.1054ZM105.746 30.7884H111.581V30.7092C111.581 30.0227 111.467 29.4242 111.238 28.9137C111.009 28.4033 110.675 27.9984 110.235 27.6992C109.795 27.4 109.267 27.2503 108.65 27.2503C108.034 27.2503 107.506 27.4 107.066 27.6992C106.626 27.9984 106.292 28.4033 106.063 28.9137C105.852 29.4242 105.746 30.0227 105.746 30.7092V30.7884Z" fill="white"/>
<path d="M94.129 39.1054C92.1752 39.1054 90.6262 38.5421 89.482 37.4155C88.3379 36.289 87.7218 34.6872 87.6338 32.6102C87.6162 32.4342 87.6074 32.2141 87.6074 31.9501C87.6074 31.6685 87.6162 31.4484 87.6338 31.29C87.7042 29.9699 88.0035 28.8257 88.5315 27.8576C89.0772 26.8895 89.8253 26.1502 90.7758 25.6398C91.7263 25.1117 92.844 24.8477 94.129 24.8477C95.5548 24.8477 96.7517 25.1469 97.7198 25.7454C98.6879 26.3262 99.4184 27.1447 99.9113 28.2009C100.404 29.2394 100.651 30.4451 100.651 31.8181V32.3726C100.651 32.5486 100.589 32.6982 100.466 32.8214C100.343 32.9446 100.184 33.0062 99.9905 33.0062H91.2247C91.2247 33.0062 91.2247 33.0326 91.2247 33.0854C91.2247 33.1382 91.2247 33.1822 91.2247 33.2175C91.2423 33.8335 91.3567 34.4056 91.5679 34.9337C91.7967 35.4441 92.1224 35.8578 92.5448 36.1746C92.9849 36.4914 93.5041 36.6499 94.1026 36.6499C94.5954 36.6499 95.0091 36.5794 95.3435 36.4386C95.678 36.2802 95.9508 36.1042 96.162 35.9106C96.3733 35.7169 96.5229 35.5585 96.6109 35.4353C96.7693 35.2241 96.8925 35.1009 96.9805 35.0657C97.0861 35.0129 97.2358 34.9865 97.4294 34.9865H99.7001C99.8761 34.9865 100.017 35.0393 100.123 35.1449C100.246 35.2505 100.299 35.3825 100.281 35.5409C100.263 35.8226 100.114 36.1658 99.8321 36.5706C99.568 36.9755 99.1808 37.3715 98.6703 37.7588C98.1599 38.146 97.5174 38.4717 96.7429 38.7357C95.986 38.9821 95.1147 39.1054 94.129 39.1054ZM91.2247 30.7884H97.0597V30.7092C97.0597 30.0227 96.9453 29.4242 96.7165 28.9137C96.4877 28.4033 96.1532 27.9984 95.7132 27.6992C95.2731 27.4 94.7451 27.2503 94.129 27.2503C93.5129 27.2503 92.9849 27.4 92.5448 27.6992C92.1048 27.9984 91.7703 28.4033 91.5415 28.9137C91.3303 29.4242 91.2247 30.0227 91.2247 30.7092V30.7884Z" fill="white"/>
<path d="M77.8114 38.841C77.6354 38.841 77.4858 38.7793 77.3626 38.6561C77.2393 38.5329 77.1777 38.3833 77.1777 38.2073V25.7714C77.1777 25.5778 77.2393 25.4194 77.3626 25.2962C77.4858 25.1729 77.6354 25.1113 77.8114 25.1113H79.9501C80.1261 25.1113 80.2757 25.1729 80.3989 25.2962C80.5397 25.4194 80.6101 25.5778 80.6101 25.7714V26.8539C81.015 26.2907 81.5343 25.8594 82.1679 25.5602C82.8192 25.2609 83.5673 25.1113 84.4122 25.1113H85.4947C85.6883 25.1113 85.838 25.1729 85.9436 25.2962C86.0668 25.4194 86.1284 25.569 86.1284 25.745V27.646C86.1284 27.822 86.0668 27.9717 85.9436 28.0949C85.838 28.2181 85.6883 28.2797 85.4947 28.2797H83.4353C82.5904 28.2797 81.9303 28.5173 81.455 28.9926C80.9974 29.4678 80.7686 30.1191 80.7686 30.9464V38.2073C80.7686 38.3833 80.707 38.5329 80.5837 38.6561C80.4605 38.7793 80.3021 38.841 80.1085 38.841H77.8114Z" fill="white"/>
<path d="M68.3435 38.8411C68.1675 38.8411 68.0179 38.7794 67.8947 38.6562C67.7714 38.533 67.7098 38.3834 67.7098 38.2074V27.9102H65.5712C65.3952 27.9102 65.2455 27.8485 65.1223 27.7253C64.9991 27.6021 64.9375 27.4525 64.9375 27.2765V25.7451C64.9375 25.5691 64.9991 25.4195 65.1223 25.2962C65.2455 25.173 65.3952 25.1114 65.5712 25.1114H67.7098V24.0289C67.7098 22.9728 67.9035 22.1015 68.2907 21.415C68.6779 20.7109 69.25 20.1828 70.0069 19.8308C70.7638 19.4788 71.7231 19.3027 72.8848 19.3027H74.6803C74.8739 19.3027 75.0235 19.3643 75.1291 19.4876C75.2523 19.6108 75.3139 19.7604 75.3139 19.9364V21.4678C75.3139 21.6438 75.2523 21.7934 75.1291 21.9166C75.0235 22.0399 74.8739 22.1015 74.6803 22.1015H72.9905C72.2864 22.1015 71.8023 22.2775 71.5383 22.6295C71.2743 22.9816 71.1422 23.492 71.1422 24.1609V25.1114H74.4162C74.6098 25.1114 74.7595 25.173 74.8651 25.2962C74.9883 25.4195 75.0499 25.5691 75.0499 25.7451V27.2765C75.0499 27.4525 74.9883 27.6021 74.8651 27.7253C74.7595 27.8485 74.6098 27.9102 74.4162 27.9102H71.1422V38.2074C71.1422 38.3834 71.0806 38.533 70.9574 38.6562C70.8342 38.7794 70.6846 38.8411 70.5086 38.8411H68.3435Z" fill="white"/>
</svg>
