<svg width="24" height="24" viewBox="0 0 24 24" fill="none" xmlns="http://www.w3.org/2000/svg">
<path fill-rule="evenodd" clip-rule="evenodd" d="M16.4788 3.00747C15.8251 3.05987 15.4177 3.41227 14.6029 4.11708C13.2959 5.24773 11.4491 6.88863 9.94648 8.39079C8.44386 9.89294 6.80245 11.7392 5.67146 13.0458C5.36674 13.3978 5.12788 13.6738 4.95063 13.9264C4.62569 14.3329 4.3956 15.0901 4.04235 16.2527L3.51463 17.9895C3.03526 19.5671 2.79558 20.356 3.2199 20.7802C3.64422 21.2044 4.43328 20.9647 6.01141 20.4855L7.74876 19.958C8.98041 19.584 9.75726 19.3481 10.1441 18.9914C10.377 18.8205 10.633 18.599 10.9511 18.3238C12.2582 17.1932 14.1049 15.5523 15.6076 14.0501C17.1102 12.548 18.7516 10.7018 19.8826 9.39512C20.5876 8.58061 20.9401 8.17335 20.9925 7.5198C21.045 6.86626 20.8198 6.50177 20.3694 5.77279C20.1126 5.35721 19.8011 4.93356 19.4335 4.56604C19.0658 4.19852 18.6421 3.88712 18.2264 3.63044C17.4972 3.18019 17.1326 2.95506 16.4788 3.00747ZM6.52706 15.1618C6.52875 15.1586 6.53037 15.1553 6.53037 15.1553L6.55327 15.1267L6.58928 15.0753C6.69511 14.9245 6.85677 14.7342 7.18498 14.3551C8.30704 13.0587 9.91096 11.256 11.3617 9.80562C11.923 9.24458 12.5369 8.66063 13.1539 8.09052L15.9079 10.8437C15.3376 11.4605 14.7535 12.0742 14.1923 12.6353C12.7415 14.0856 10.9382 15.6891 9.64145 16.8108C9.30277 17.1038 9.11386 17.2653 8.95974 17.3784L8.86948 17.4447L8.83526 17.4762C8.80512 17.4918 8.7214 17.5337 8.55359 17.5973C8.23461 17.7182 7.80697 17.8491 7.16704 18.0435L5.42973 18.571L5.95744 16.8342C6.14021 16.2327 6.26737 15.8169 6.3848 15.4988C6.46465 15.2825 6.51381 15.1875 6.52706 15.1618ZM17.2529 9.35858C17.6566 8.90447 18.0343 8.47262 18.3691 8.08586C18.5507 7.87603 18.6844 7.72134 18.7954 7.58529C18.8863 7.474 18.9421 7.39913 18.9773 7.34739C18.9645 7.32261 18.9473 7.29098 18.9246 7.2511C18.8623 7.14167 18.7843 7.01494 18.6665 6.82424C18.4664 6.50036 18.2472 6.20983 18.0182 5.98087C17.7892 5.75192 17.4986 5.53283 17.1746 5.33278C16.9838 5.21499 16.8571 5.13703 16.7476 5.07474C16.7077 5.05205 16.6761 5.03491 16.6513 5.02203C16.5995 5.0573 16.5246 5.11309 16.4133 5.2039C16.2772 5.31493 16.1225 5.44857 15.9126 5.63014C15.5257 5.96481 15.0937 6.34236 14.6395 6.74593L17.2529 9.35858Z" fill="white"/>
</svg>
