<svg width="24" height="24" viewBox="0 0 24 24" fill="none" xmlns="http://www.w3.org/2000/svg">
<path d="M21 7.00006C21 6.71513 20.9513 6.43018 20.8538 6.15793C20.6119 5.48175 19.9097 4.92809 18.5056 3.82089C18.2415 3.61262 18.0037 3.41717 17.7816 3.2346C17.5064 3.0084 17.2552 2.80195 17.0077 2.61534C16.8833 2.54236 16.7422 2.50577 16.6015 2.50006C16.0995 2.47966 15.5649 2.85769 15.5055 3.36868C15.5008 3.40973 15.4994 3.42023 15.499 3.42322L15.4989 3.4247C15.4989 3.48035 15.4989 3.50817 15.5 3.53212C15.5136 3.81662 15.6371 4.06594 15.855 4.24933C15.8733 4.26477 15.8981 4.28369 15.9478 4.32154C16.3289 4.61229 16.777 4.96494 17.2673 5.39144C17.5683 5.62879 17.8201 5.82778 18.0332 5.99958L4.5 5.99958C3.94772 5.99958 3.5 6.44729 3.5 6.99958C3.5 7.55186 3.94772 8.00054 4.5 8.00054L18.0332 8.00054C17.8201 8.17234 17.5683 8.37134 17.2673 8.60869C16.777 9.03518 16.3289 9.38784 15.9478 9.67859C15.8981 9.71643 15.8733 9.73536 15.855 9.75079C15.637 9.93418 15.5136 10.1835 15.5 10.468C15.4989 10.492 15.4989 10.5198 15.4989 10.5754L15.499 10.5769C15.4994 10.5799 15.5008 10.5904 15.5055 10.6314C15.5649 11.1424 16.0995 11.5205 16.6015 11.5001C16.7422 11.4943 16.8833 11.4578 17.0077 11.3848C17.2552 11.1982 17.5064 10.9917 17.7815 10.7655C18.0036 10.583 18.2415 10.3875 18.5056 10.1792C19.9097 9.07203 20.6119 8.51837 20.8538 7.8422C20.9513 7.56994 21 7.28499 21 7.00006Z" fill="white"/>
<path d="M3 17.0001C3.00002 16.7151 3.04872 16.4302 3.14614 16.1579C3.3881 15.4818 4.09025 14.9281 5.49441 13.8209C5.7585 13.6126 5.99624 13.4172 6.21833 13.2347C6.49351 13.0085 6.74476 12.802 6.99224 12.6153C7.11665 12.5424 7.25778 12.5058 7.39853 12.5001C7.90049 12.4797 8.43511 12.8577 8.49446 13.3687C8.49923 13.4097 8.50059 13.4202 8.50098 13.4232L8.50114 13.4247C8.50114 13.4804 8.50113 13.5082 8.49999 13.5321C8.48634 13.8166 8.36294 14.0659 8.14501 14.2493C8.12667 14.2648 8.10188 14.2837 8.05231 14.3215C7.67112 14.6122 7.22299 14.9649 6.7327 15.3914C6.43169 15.6288 6.17986 15.8278 5.96683 15.9996L19.5 15.9996C20.0523 15.9996 20.5 16.4473 20.5 16.9996C20.5 17.5519 20.0523 18.0006 19.5 18.0006L5.96683 18.0005C6.17986 18.1723 6.43169 18.3713 6.7327 18.6087C7.22299 19.0352 7.67105 19.3878 8.05223 19.6786C8.10174 19.7164 8.12668 19.7354 8.14501 19.7508C8.36294 19.9342 8.48634 20.1835 8.49999 20.468C8.50113 20.492 8.50113 20.5198 8.50113 20.5754L8.50098 20.5769C8.50059 20.5799 8.49923 20.5904 8.49446 20.6315C8.43511 21.1424 7.90049 21.5205 7.39853 21.5001C7.25778 21.4944 7.11665 21.4578 6.99224 21.3848C6.74476 21.1982 6.4936 20.9917 6.21841 20.7655C5.99631 20.583 5.75853 20.3875 5.49441 20.1792C4.09025 19.072 3.3881 18.5184 3.14614 17.8422C3.04872 17.5699 3.00002 17.285 3 17.0001Z" fill="white"/>
</svg>
