<svg width="88" height="88" viewBox="0 0 88 88" fill="none" xmlns="http://www.w3.org/2000/svg">
<g clip-path="url(#clip0_740_11166)">
<path d="M86.9334 54.6441C81.0562 78.2157 57.1792 92.561 33.6021 86.6829C10.0349 80.8064 -4.31195 56.9307 1.56781 33.3609C7.4424 9.78668 31.3194 -4.55964 54.8891 1.31687C78.4645 7.19339 92.8105 31.0717 86.9327 54.6445L86.9331 54.6441H86.9334Z" fill="#F7931A"/>
<path d="M63.4042 37.7312C64.2801 31.8757 59.8216 28.7282 53.7251 26.6285L55.7028 18.6968L50.874 17.4937L48.9487 25.2166C47.6793 24.9 46.3756 24.6017 45.0799 24.306L47.0191 16.5321L42.1933 15.329L40.2145 23.2582C39.164 23.019 38.1322 22.7827 37.1311 22.5336L37.1367 22.5087L30.4777 20.846L29.1932 26.0029C29.1932 26.0029 32.7757 26.824 32.7002 26.8745C34.6556 27.3625 35.0093 28.6568 34.9505 29.6827L32.6977 38.7188C32.8323 38.753 33.007 38.8024 33.1997 38.8798C33.0386 38.8398 32.8672 38.7962 32.6893 38.7536L29.5315 51.4118C29.2925 52.0059 28.686 52.8973 27.3189 52.5588C27.3672 52.6289 23.8092 51.6831 23.8092 51.6831L21.4118 57.2099L27.6957 58.7762C28.8647 59.0693 30.0103 59.376 31.1385 59.6644L29.1403 67.6871L33.9635 68.8902L35.9423 60.9527C37.26 61.3104 38.5387 61.6403 39.7905 61.9513L37.8184 69.8514L42.6474 71.0544L44.6454 63.0468C52.8795 64.605 59.071 63.9768 61.677 56.5298C63.777 50.5342 61.5725 47.0759 57.2405 44.8207C60.3957 44.0931 62.7723 42.0181 63.4059 37.7318L63.4044 37.7307L63.4042 37.7312ZM52.3715 53.2001C50.8792 59.1958 40.7832 55.9547 37.5099 55.142L40.1616 44.5133C43.4346 45.3304 53.9311 46.9473 52.3717 53.2001H52.3715ZM53.8649 37.6443C52.5036 43.098 44.1006 40.3272 41.3747 39.6479L43.7788 30.0083C46.5046 30.6877 55.283 31.9557 53.8653 37.6443H53.8649Z" fill="white"/>
</g>
<defs>
<clipPath id="clip0_740_11166">
<rect width="88" height="88" fill="white"/>
</clipPath>
</defs>
</svg>
