<svg width="88" height="88" viewBox="0 0 88 88" fill="none" xmlns="http://www.w3.org/2000/svg">
<circle cx="44" cy="44" r="44" fill="#3468D1"/>
<g clip-path="url(#clip0_496_6576)">
<path d="M32.2407 43.8268C32.1299 45.7523 33.6121 47.4008 35.5377 47.5116C35.6069 47.5116 35.6762 47.5116 35.7455 47.5116C37.6849 47.5116 39.2502 45.9463 39.2364 44.0069C39.2364 42.0675 37.671 40.5021 35.7316 40.516C33.8753 40.516 32.3377 41.9705 32.2407 43.8268Z" fill="white"/>
<path d="M19.1913 42.9263C18.568 42.8848 18.0277 43.3696 18 43.993C17.9723 44.6164 18.4433 45.1566 19.0667 45.1843C19.69 45.2259 20.2165 44.741 20.258 44.1177C20.2996 43.4943 19.8147 42.9679 19.1913 42.9263Z" fill="white"/>
<path d="M32.019 23.5185C32.5731 23.2414 32.7948 22.5488 32.5177 21.9947C32.2406 21.4406 31.548 21.2189 30.9939 21.496C30.4398 21.773 30.2181 22.4518 30.4952 23.0059C30.7722 23.5739 31.451 23.8094 32.019 23.5185Z" fill="white"/>
<path d="M35.5654 29.7109C36.4242 29.2814 36.7705 28.2286 36.3411 27.3697C35.9117 26.5109 34.8589 26.1645 34 26.594C33.1411 27.0234 32.7948 28.0762 33.2242 28.9351C33.6537 29.794 34.7065 30.1403 35.5654 29.7109Z" fill="white"/>
<path d="M23.6242 33.9636C24.2892 34.3931 25.1758 34.213 25.619 33.548C26.0485 32.8831 25.8684 31.9965 25.2035 31.5532C24.5385 31.1238 23.6519 31.3039 23.2087 31.9688C22.7654 32.6338 22.9593 33.5342 23.6242 33.9636Z" fill="white"/>
<path d="M25.7437 42.303C24.774 42.2476 23.9567 42.9818 23.9013 43.9515C23.8458 44.9212 24.58 45.7385 25.5497 45.7939C26.5194 45.8493 27.3368 45.1151 27.3922 44.1454C27.4476 43.1896 26.7134 42.3584 25.7437 42.303Z" fill="white"/>
<path d="M23.8182 54.0362C23.1117 54.3964 22.8208 55.2552 23.181 55.9756C23.5411 56.6821 24.4 56.973 25.1204 56.6128C25.8268 56.2526 26.1178 55.3938 25.7576 54.6734C25.3974 53.9669 24.5247 53.676 23.8182 54.0362Z" fill="white"/>
<path d="M30.606 38.6875C31.5619 39.3109 32.8363 39.0477 33.4459 38.0918C34.0692 37.136 33.806 35.8615 32.8502 35.252C31.8943 34.6286 30.6199 34.8918 30.0104 35.8477C29.387 36.7897 29.6502 38.0641 30.606 38.6875Z" fill="white"/>
<path d="M52.1472 29.5722C52.9506 30.0986 54.045 29.877 54.5714 29.0735C55.0978 28.2701 54.8762 27.1757 54.0727 26.6493C53.2692 26.1229 52.1749 26.3445 51.6485 27.148C51.1082 27.9653 51.3299 29.0458 52.1472 29.5722Z" fill="white"/>
<path d="M55.7212 23.4077C56.2476 23.754 56.9402 23.6017 57.2866 23.0752C57.6329 22.5488 57.4805 21.8562 56.9541 21.5099C56.4277 21.1636 55.735 21.3159 55.3887 21.8285C55.0562 22.3549 55.2086 23.0614 55.7212 23.4077Z" fill="white"/>
<path d="M52.4103 40.4883C50.4848 40.3774 48.8225 41.8597 48.7255 43.7852C48.6147 45.7108 50.0969 47.3731 52.0225 47.4701C52.0917 47.4701 52.161 47.4701 52.2164 47.4701C54.1419 47.4701 55.7073 45.9047 55.7073 43.9653C55.7212 42.1229 54.2666 40.5852 52.4103 40.4883Z" fill="white"/>
<path d="M36.7151 38.438C37.3108 39.6155 38.516 40.3635 39.8458 40.3635C41.7714 40.3635 43.3367 38.7982 43.3367 36.8588C43.3367 36.3185 43.2121 35.7783 42.9627 35.2796C42.09 33.548 39.9844 32.8553 38.2666 33.728C36.535 34.6146 35.8424 36.7203 36.7151 38.438Z" fill="white"/>
<path d="M64.1298 33.9637C64.8363 33.6035 65.1134 32.7308 64.7532 32.0243C64.393 31.3178 63.5203 31.0407 62.8138 31.4009C62.1073 31.7611 61.8303 32.6199 62.1766 33.3264C62.5506 34.0329 63.4095 34.3238 64.1298 33.9637Z" fill="white"/>
<path d="M55.264 35.0717C54.2528 35.5843 53.8372 36.8172 54.3497 37.8284C54.8623 38.8397 56.0952 39.2552 57.1065 38.7427C58.1177 38.2301 58.5333 36.9972 58.0207 35.986C57.5082 34.9747 56.2753 34.573 55.264 35.0717Z" fill="white"/>
<path d="M43.8355 22.8812C44.6251 22.9228 45.3039 22.3133 45.3593 21.5237C45.4147 20.7341 44.7913 20.0553 44.0017 19.9999C43.2121 19.9583 42.5333 20.554 42.4779 21.3436C42.4363 22.147 43.0459 22.8258 43.8355 22.8812Z" fill="white"/>
<path d="M43.8216 31.9273C44.9576 31.9965 45.9273 31.1238 45.9827 29.9879C46.0519 28.852 45.1792 27.8823 44.0433 27.8269C42.9073 27.7576 41.9376 28.6303 41.8822 29.7662C41.8268 30.9022 42.6857 31.8719 43.8216 31.9273Z" fill="white"/>
<path d="M32.684 52.928C33.6952 52.4154 34.1108 51.1825 33.5983 50.1713C33.0857 49.16 31.8528 48.7444 30.8415 49.257C29.8303 49.7695 29.4147 51.0024 29.9273 52.0137C30.4398 53.0249 31.6727 53.4405 32.684 52.928Z" fill="white"/>
<path d="M45.1515 34.9332C44.0987 36.554 44.542 38.715 46.1627 39.7679C47.7835 40.8207 49.9446 40.3774 50.9974 38.7566C52.0502 37.1358 51.6069 34.9748 49.9861 33.922C49.4182 33.5479 48.7532 33.354 48.0744 33.354C46.8969 33.354 45.8026 33.9497 45.1515 34.9332Z" fill="white"/>
<path d="M51.2329 49.5618C50.3601 47.8302 48.2545 47.1375 46.5368 48.0103C44.8052 48.883 44.1125 50.9886 44.9852 52.7064C45.858 54.438 47.9636 55.1306 49.6813 54.2579C51.3991 53.399 52.1056 51.3211 51.2467 49.5895C51.2467 49.5756 51.2467 49.5756 51.2329 49.5618Z" fill="white"/>
<path d="M57.3419 49.3125C56.3861 48.6892 55.1116 48.9524 54.5021 49.9082C53.8787 50.8641 54.1419 52.1385 55.0978 52.748C56.0536 53.3714 57.3281 53.1082 57.9376 52.1524C58.561 51.2104 58.2978 49.9359 57.3419 49.3125Z" fill="white"/>
<path d="M64.0467 44.0622C64.1021 43.0925 63.3679 42.2751 62.3982 42.2197C61.4285 42.1643 60.6112 42.8985 60.5558 43.8682C60.5004 44.8379 61.2346 45.6552 62.2043 45.7106C63.1601 45.7661 63.9913 45.018 64.0467 44.0622Z" fill="white"/>
<path d="M68.8813 42.8155C68.258 42.7739 67.7177 43.2588 67.69 43.8821C67.6623 44.5055 68.1333 45.0458 68.7567 45.0735C69.38 45.115 69.9065 44.6302 69.948 44.0068C69.9757 43.3834 69.5047 42.857 68.8813 42.8155Z" fill="white"/>
<path d="M64.3238 54.0364C63.6589 53.607 62.7723 53.787 62.329 54.452C61.8996 55.1169 62.0796 56.0035 62.7446 56.4468C63.4095 56.8762 64.2961 56.6961 64.7394 56.0312C65.1827 55.3663 64.9887 54.4658 64.3238 54.0364Z" fill="white"/>
<path d="M32.2129 64.5922C31.6865 64.2458 30.9939 64.3982 30.6476 64.9108C30.3013 65.4372 30.4536 66.1298 30.9662 66.4761C31.4926 66.8225 32.1852 66.6701 32.5316 66.1575C32.8917 65.645 32.7394 64.9385 32.2129 64.5922Z" fill="white"/>
<path d="M55.929 64.4812C55.3749 64.7583 55.1533 65.4509 55.4303 66.005C55.7074 66.5591 56.4 66.7808 56.9541 66.5037C57.5082 66.2267 57.7299 65.5479 57.4528 64.9938C57.1758 64.4258 56.497 64.1903 55.929 64.4812Z" fill="white"/>
<path d="M42.7965 53.0666C43.8493 51.4458 43.406 49.2847 41.7853 48.2181C40.1645 47.1653 38.0034 47.6086 36.9368 49.2293C35.8701 50.8501 36.3273 53.0112 37.948 54.0778C38.516 54.4518 39.1809 54.6458 39.8597 54.6458C41.0511 54.6596 42.1454 54.064 42.7965 53.0666Z" fill="white"/>
<path d="M35.8008 58.4276C34.9974 57.9012 33.903 58.1229 33.3766 58.9263C32.8502 59.7298 33.0718 60.8242 33.8753 61.3506C34.6788 61.877 35.7731 61.6553 36.2995 60.8519C36.8398 60.0484 36.6182 58.954 35.8008 58.4276Z" fill="white"/>
<path d="M43.9602 65.1185C43.1705 65.0769 42.4918 65.6864 42.4364 66.476C42.3809 67.2656 43.0043 67.9444 43.7939 67.9998C44.5835 68.0414 45.2623 67.4457 45.3177 66.6561C45.3593 65.8527 44.7498 65.1739 43.9602 65.1185Z" fill="white"/>
<path d="M43.974 56.0727C42.838 56.0034 41.8683 56.8762 41.8129 58.0121C41.7437 59.148 42.6164 60.1177 43.7523 60.1731C44.8883 60.2285 45.858 59.3697 45.9134 58.2337C45.9826 57.1117 45.1099 56.1281 43.974 56.0727Z" fill="white"/>
<path d="M52.3827 58.289C51.5238 58.7323 51.1775 59.7851 51.6208 60.644C52.0641 61.5029 53.1169 61.8492 53.9757 61.4059C54.8346 60.9765 55.1809 59.9237 54.7515 59.0648C54.3082 58.2059 53.2554 57.8457 52.3827 58.289Z" fill="white"/>
</g>
<defs>
<clipPath id="clip0_496_6576">
<rect width="51.9481" height="48" fill="white" transform="translate(18 20)"/>
</clipPath>
</defs>
</svg>
