<svg width="88" height="88" viewBox="0 0 88 88" fill="none" xmlns="http://www.w3.org/2000/svg">
<path opacity="0.2" d="M44 88C68.3005 88 88 68.3005 88 44C88 19.6995 68.3005 0 44 0C19.6995 0 0 19.6995 0 44C0 68.3005 19.6995 88 44 88Z" fill="#F2BA02"/>
<path d="M44 88C68.3005 88 88 68.3005 88 44C88 19.6995 68.3005 0 44 0C19.6995 0 0 19.6995 0 44C0 68.3005 19.6995 88 44 88Z" fill="#F2BA02"/>
<mask id="mask0_496_6572" style="mask-type:luminance" maskUnits="userSpaceOnUse" x="0" y="0" width="88" height="88">
<path d="M44 88C68.3005 88 88 68.3005 88 44C88 19.6995 68.3005 0 44 0C19.6995 0 0 19.6995 0 44C0 68.3005 19.6995 88 44 88Z" fill="white"/>
</mask>
<g mask="url(#mask0_496_6572)">
<path fill-rule="evenodd" clip-rule="evenodd" d="M44.7279 26.3516H32.7142V42.3076H25.3846V47.6263H32.7142V63.5823H44.7279C51.0692 63.5823 52.4355 62.9182 55.1683 61.59C55.3804 61.4869 55.6008 61.3798 55.8324 61.2687C59.0471 59.7263 61.5454 57.5545 63.3272 54.7533C65.1091 51.9521 66 48.69 66 44.9669C66 41.2439 65.1091 37.9818 63.3272 35.1806C61.5454 32.3794 59.0471 30.2076 55.8324 28.6652C52.6177 27.1228 48.9162 26.3516 44.7279 26.3516ZM41.6418 47.6263V56.5085H44.2871C48.1447 56.5085 51.2216 55.4714 53.5178 53.3971C55.814 51.3228 56.9621 48.5128 56.9621 44.9669C56.9621 41.4211 55.814 38.6111 53.5178 36.5368C51.2216 34.4625 48.1447 33.4254 44.2871 33.4254H41.6418V42.3076H50.1837V47.6263H41.6418Z" fill="white"/>
</g>
</svg>
