<svg width="88" height="88" viewBox="0 0 88 88" fill="none" xmlns="http://www.w3.org/2000/svg">
<g clip-path="url(#clip0_932_9401)">
<path d="M86.6832 54.6441C80.806 78.2157 56.9291 92.561 33.352 86.6829C9.78477 80.8064 -4.56209 56.9307 1.31767 33.3609C7.19226 9.78668 31.0692 -4.55964 54.639 1.31687C78.2144 7.19339 92.5604 31.0717 86.6826 54.6445L86.683 54.6441H86.6832Z" fill="#CFCFCF"/>
<g opacity="0.8">
<path d="M43.995 15.9788L43.6343 17.2046V52.7762L43.995 53.1362L60.5069 43.3761L43.995 15.9788Z" fill="#757575"/>
<path d="M43.9951 15.9788L27.4832 43.3761L43.9951 53.1363V35.871V15.9788Z" fill="white"/>
<path d="M43.995 58.5084L43.7917 58.7562V71.4275L43.995 72.0211L60.5168 48.7532L43.995 58.5084Z" fill="#757575"/>
<path d="M43.9951 72.0212V58.5084L27.4832 48.7532L43.9951 72.0212Z" fill="white"/>
<path d="M43.995 53.1362L60.5066 43.3762L43.995 35.8711V53.1362Z" fill="#757575"/>
<path d="M27.4832 43.3761L43.9948 53.1362V35.871L27.4832 43.3761Z" fill="white"/>
</g>
</g>
<defs>
<clipPath id="clip0_932_9401">
<rect width="88" height="88" fill="white"/>
</clipPath>
</defs>
</svg>
