<svg width="88" height="88" viewBox="0 0 88 88" fill="none" xmlns="http://www.w3.org/2000/svg">
<circle cx="44" cy="44" r="44" fill="#E6007A"/>
<g clip-path="url(#clip0_496_6580)">
<path d="M43.685 31.2287C48.0667 31.2287 51.6189 29.1628 51.6189 26.6143C51.6189 24.0659 48.0667 22 43.685 22C39.3032 22 35.751 24.0659 35.751 26.6143C35.751 29.1628 39.3032 31.2287 43.685 31.2287Z" fill="white"/>
<path d="M43.685 65.997C48.0667 65.997 51.6189 63.9311 51.6189 61.3826C51.6189 58.8342 48.0667 56.7683 43.685 56.7683C39.3032 56.7683 35.751 58.8342 35.751 61.3826C35.751 63.9311 39.3032 65.997 43.685 65.997Z" fill="white"/>
<path d="M32.6285 37.6161C34.8194 33.8215 34.8052 29.7116 32.5968 28.4366C30.3883 27.1615 26.822 29.204 24.6311 32.9986C22.4402 36.7932 22.4544 40.903 24.6628 42.1781C26.8713 43.4532 30.4376 41.4107 32.6285 37.6161Z" fill="white"/>
<path d="M62.7354 54.998C64.9263 51.2033 64.9133 47.0942 62.7064 45.82C60.4994 44.5458 56.9343 46.589 54.7434 50.3836C52.5525 54.1782 52.5655 58.2873 54.7724 59.5616C56.9794 60.8358 60.5445 58.7926 62.7354 54.998Z" fill="white"/>
<path d="M32.5979 59.5605C34.8063 58.2854 34.8205 54.1756 32.6296 50.381C30.4387 46.5864 26.8724 44.5439 24.6639 45.819C22.4555 47.094 22.4413 51.2038 24.6322 54.9985C26.8231 58.7931 30.3894 60.8356 32.5979 59.5605Z" fill="white"/>
<path d="M62.7083 42.179C64.9152 40.9048 64.9282 36.7957 62.7373 33.0011C60.5464 29.2064 56.9813 27.1632 54.7743 28.4375C52.5674 29.7117 52.5544 33.8208 54.7453 37.6154C56.9362 41.41 60.5013 43.4532 62.7083 42.179Z" fill="white"/>
</g>
<defs>
<clipPath id="clip0_496_6580">
<rect width="41.373" height="44" fill="white" transform="translate(23 22)"/>
</clipPath>
</defs>
</svg>
