<svg width="88" height="88" viewBox="0 0 88 88" fill="none" xmlns="http://www.w3.org/2000/svg">
<circle cx="44" cy="44" r="44" fill="url(#paint0_linear_482_6404)"/>
<mask id="mask0_482_6404" style="mask-type:luminance" maskUnits="userSpaceOnUse" x="24" y="26" width="40" height="36">
<path d="M64 26H24V61.8389H64V26Z" fill="white"/>
</mask>
<g mask="url(#mask0_482_6404)">
<path d="M63.7939 54.2564L57.1908 61.3508C57.0473 61.5049 56.8736 61.6278 56.6807 61.7118C56.4876 61.7957 56.2794 61.8391 56.069 61.8389H24.7666C24.6172 61.8389 24.4711 61.7952 24.3462 61.7132C24.2213 61.6311 24.1231 61.5143 24.0635 61.3771C24.004 61.2398 23.9858 61.0882 24.0111 60.9407C24.0364 60.7932 24.1042 60.6564 24.2061 60.547L30.8143 53.4527C30.9575 53.2989 31.1306 53.1763 31.323 53.0923C31.5153 53.0083 31.7229 52.9649 31.9327 52.9645H63.2334C63.3827 52.9645 63.5288 53.0082 63.6537 53.0903C63.7787 53.1723 63.8769 53.2892 63.9365 53.4265C63.996 53.5636 64.0142 53.7153 63.9889 53.8627C63.9636 54.0102 63.8958 54.147 63.7939 54.2564ZM57.1908 39.9704C57.0473 39.8163 56.8736 39.6934 56.6807 39.6094C56.4876 39.5255 56.2794 39.4821 56.069 39.4822H24.7666C24.6172 39.4822 24.4711 39.526 24.3462 39.608C24.2213 39.6901 24.1231 39.8069 24.0635 39.9441C24.004 40.0814 23.9858 40.233 24.0111 40.3805C24.0364 40.528 24.1042 40.6647 24.2061 40.7742L30.8143 47.8685C30.9575 48.0223 31.1306 48.1449 31.323 48.2289C31.5153 48.3128 31.7229 48.3563 31.9327 48.3567H63.2334C63.3827 48.3567 63.5288 48.313 63.6537 48.2309C63.7787 48.1489 63.8769 48.032 63.9365 47.8947C63.996 47.7576 64.0142 47.6059 63.9889 47.4585C63.9636 47.311 63.8958 47.1742 63.7939 47.0648L57.1908 39.9704ZM24.7666 34.8744H56.069C56.2794 34.8745 56.4876 34.8312 56.6807 34.7473C56.8736 34.6633 57.0473 34.5404 57.1908 34.3863L63.7939 27.2919C63.8958 27.1825 63.9636 27.0457 63.9889 26.8982C64.0142 26.7508 63.996 26.5991 63.9365 26.4619C63.8769 26.3246 63.7787 26.2078 63.6537 26.1258C63.5288 26.0437 63.3827 26 63.2334 26H31.9327C31.7229 26.0004 31.5153 26.0439 31.323 26.1278C31.1306 26.2118 30.9575 26.3344 30.8143 26.4881L24.2078 33.5825C24.106 33.6918 24.0383 33.8285 24.0129 33.9758C23.9875 34.1231 24.0056 34.2746 24.0649 34.4118C24.1242 34.5489 24.2222 34.6657 24.3469 34.7479C24.4715 34.8301 24.6174 34.8741 24.7666 34.8744Z" fill="black"/>
</g>
<defs>
<linearGradient id="paint0_linear_482_6404" x1="7.42825" y1="90.0972" x2="88.7519" y2="8.10559" gradientUnits="userSpaceOnUse">
<stop offset="0.08" stop-color="#9945FF"/>
<stop offset="0.3" stop-color="#8752F3"/>
<stop offset="0.5" stop-color="#5497D5"/>
<stop offset="0.6" stop-color="#43B4CA"/>
<stop offset="0.72" stop-color="#28E0B9"/>
<stop offset="0.97" stop-color="#19FB9B"/>
</linearGradient>
</defs>
</svg>
