<svg width="88" height="88" viewBox="0 0 88 88" fill="none" xmlns="http://www.w3.org/2000/svg">
<g clip-path="url(#clip0_932_9720)">
<path d="M86.6832 54.6441C80.806 78.2157 56.9291 92.561 33.352 86.6829C9.78477 80.8064 -4.56209 56.9307 1.31767 33.3609C7.19226 9.78668 31.0692 -4.55964 54.639 1.31687C78.2144 7.19339 92.5604 31.0717 86.6826 54.6445L86.683 54.6441H86.6832Z" fill="#C4E5DC"/>
</g>
<path d="M39.2267 42.862V33.4478H26.4582V25.1959H62.1385V33.564H49.3699V42.862H39.2267Z" fill="#00A478"/>
<path fill-rule="evenodd" clip-rule="evenodd" d="M20.9689 43.9079C20.9689 40.7699 31.2315 38.213 44 38.213C56.7685 38.213 67.0311 40.7699 67.0311 43.9079C67.0311 47.046 56.7685 49.6029 44 49.6029C31.2315 49.6029 20.9689 47.046 20.9689 43.9079ZM65.1218 43.908C64.2864 42.7457 57.3652 39.1428 44 39.1428C30.6348 39.1428 23.7136 42.6295 22.8782 43.908C23.7136 45.0702 30.6348 46.8136 44 46.8136C57.4845 46.8136 64.2864 45.0702 65.1218 43.908Z" fill="#00A478"/>
<path d="M49.3699 45.7675V39.2589C47.6993 39.1427 45.9093 39.0265 44.1193 39.0265C42.4487 39.0265 40.8974 39.0265 39.3461 39.1427V45.6513C40.778 45.6513 42.4487 45.7675 44.1193 45.7675C45.9093 45.8837 47.6993 45.8837 49.3699 45.7675Z" fill="#00A478"/>
<path d="M44 49.6028C42.3294 49.6028 40.778 49.6028 39.2267 49.4866V66.804H49.2506V49.3704C47.58 49.4866 45.79 49.6028 44 49.6028Z" fill="#00A478"/>
<defs>
<clipPath id="clip0_932_9720">
<rect width="88" height="88" fill="white"/>
</clipPath>
</defs>
</svg>
