<svg width="88" height="88" viewBox="0 0 88 88" fill="none" xmlns="http://www.w3.org/2000/svg">
<g clip-path="url(#clip0_496_6564)">
<path d="M44 88C68.3835 88 88 68.3835 88 44C88 19.6165 68.3835 0 44 0C19.6165 0 0 19.6165 0 44C0 68.3835 19.6165 88 44 88Z" fill="#2775CA"/>
<path d="M51.4959 48.0462C51.4959 44.0001 49.0681 42.6128 44.2126 42.0348C40.7444 41.5723 40.0507 40.6475 40.0507 39.0289C40.0507 37.4102 41.2069 36.37 43.519 36.37C45.5999 36.37 46.7561 37.0636 47.334 38.7977C47.4497 39.1446 47.7965 39.3757 48.1434 39.3757H49.9929C50.4554 39.3757 50.8022 39.0289 50.8022 38.5666V38.4509C50.3397 35.9075 48.2588 33.9422 45.5999 33.7111V30.9365C45.5999 30.474 45.2531 30.1272 44.6751 30.0115H42.941C42.4785 30.0115 42.1317 30.3583 42.016 30.9365V33.5954C38.5478 34.0579 36.3514 36.37 36.3514 39.2603C36.3514 43.0753 38.6635 44.578 43.519 45.1562C46.7561 45.7342 47.7965 46.4278 47.7965 48.2776C47.7965 50.1275 46.1779 51.399 43.9815 51.399C40.9755 51.399 39.935 50.1272 39.5882 48.3931C39.4728 47.9308 39.126 47.6994 38.7792 47.6994H36.8136C36.3514 47.6994 36.0046 48.0462 36.0046 48.5088V48.6245C36.4668 51.5145 38.3166 53.5954 42.1317 54.1736V56.9482C42.1317 57.4104 42.4785 57.7573 43.0564 57.873H44.7906C45.2531 57.873 45.5999 57.5261 45.7156 56.9482V54.1736C49.1838 53.5954 51.4959 51.1676 51.4959 48.0462Z" fill="white"/>
<path d="M37.9698 60.185C28.9524 56.9481 24.328 46.8903 27.6808 37.9883C29.4149 33.1328 33.23 29.4335 37.9698 27.6993C38.4323 27.4682 38.6635 27.1214 38.6635 26.5432V24.9248C38.6635 24.4622 38.4323 24.1154 37.9698 24C37.8541 24 37.623 24 37.5073 24.1154C26.5247 27.5836 20.513 39.2602 23.9812 50.2428C26.0621 56.7167 31.0334 61.6879 37.5073 63.7689C37.9698 64 38.4323 63.7689 38.5478 63.3064C38.6635 63.1909 38.6635 63.0752 38.6635 62.8441V61.2254C38.6635 60.8786 38.3166 60.4164 37.9698 60.185ZM50.2243 24.1154C49.7618 23.8843 49.2993 24.1154 49.1838 24.5779C49.0681 24.6936 49.0681 24.8091 49.0681 25.0405V26.6589C49.0681 27.1214 49.4149 27.5836 49.7618 27.815C58.7792 31.0519 63.4035 41.1097 60.0507 50.0117C58.3166 54.8672 54.5016 58.5665 49.7618 60.3007C49.2992 60.5318 49.0681 60.8786 49.0681 61.4568V63.0752C49.0681 63.5378 49.2992 63.8846 49.7618 64C49.8775 64 50.1086 64 50.2243 63.8846C61.2069 60.4164 67.2186 48.7398 63.7504 37.7572C61.6694 31.1676 56.5825 26.1964 50.2243 24.1154Z" fill="white"/>
</g>
<defs>
<clipPath id="clip0_496_6564">
<rect width="88" height="88" fill="white"/>
</clipPath>
</defs>
</svg>
