<svg width="88" height="88" viewBox="0 0 88 88" fill="none" xmlns="http://www.w3.org/2000/svg">
<circle cx="44" cy="44" r="44" fill="#26FCC4"/>
<path d="M39.9034 24.0187C40.9906 24.0187 41.9348 24.0187 42.883 24.0187C44.5424 24.0187 46.2018 24.0351 47.8653 24.031C48.3394 24.031 48.6705 24.2313 48.9239 24.6114C49.7373 25.8335 50.5384 27.0596 51.3722 28.2694C52.112 29.3444 52.9131 30.3744 53.6447 31.4575C54.3068 32.4384 54.9035 33.4602 55.5452 34.4575C55.7046 34.7027 55.909 34.9153 56.0929 35.1442C56.1461 35.1278 56.1951 35.1074 56.2482 35.091C56.2482 34.9194 56.2482 34.7436 56.2482 34.572C56.2482 31.249 56.2605 27.9302 56.236 24.6073C56.236 24.1209 56.3995 24.0024 56.845 24.0065C58.9785 24.0228 61.1161 24.0146 63.2497 24.0228C63.4826 24.0228 63.7197 24.0637 63.9854 24.0923V64C63.7687 64 63.5725 64 63.3723 64C59.6611 64 55.9499 64 52.2387 64C51.5929 64 50.7673 63.391 50.5547 62.7902C50.4852 62.594 50.3585 62.4142 50.2441 62.2343C49.7986 61.5354 49.3572 60.8283 48.8953 60.1417C48.5275 59.5981 48.1228 59.0831 47.7427 58.5435C47.0642 57.579 46.4062 56.6021 45.7195 55.6416C44.9675 54.5871 44.1746 53.5571 43.4307 52.4945C43.0587 51.959 42.7522 51.3786 42.4171 50.8187C42.3925 50.7737 42.3803 50.7247 42.3476 50.6838C41.9102 50.0993 41.4484 49.5312 41.0397 48.9263C40.6555 48.3623 40.3367 47.7492 39.9565 47.1811C39.5437 46.5639 39.0941 45.9753 38.6691 45.3704C38.0682 44.5162 37.4919 43.6456 36.8829 42.7955C36.09 41.6878 35.2603 40.6047 34.4797 39.4889C34.0995 38.9453 33.793 38.3486 33.4538 37.7804C33.4292 37.7355 33.4088 37.6864 33.3802 37.6456C32.6608 36.6401 31.9292 35.6469 31.218 34.6333C30.6009 33.7504 30.0246 32.839 29.4033 31.9602C28.684 30.9425 27.9278 29.9493 27.2003 28.9357C26.9632 28.6087 26.7711 28.249 26.5504 27.9139C25.7452 26.704 24.9319 25.4983 24.1226 24.2926C24.0695 24.2149 24.0409 24.1168 24 24.031C24.4782 24.031 24.9196 24.031 25.3651 24.031C27.4169 24.031 29.4687 24.0882 31.5164 24.0024C32.4442 23.9615 32.9306 24.452 33.3761 25.0651C33.7685 25.6005 34.0464 26.2217 34.4143 26.7735C34.8189 27.3825 35.2808 27.9588 35.7017 28.5596C36.0655 29.0869 36.4088 29.6305 36.7603 30.1659C36.8789 30.3458 36.9892 30.5379 37.12 30.7095C37.2344 30.8567 37.3898 30.9711 37.496 31.1223C38.2603 32.2341 39.0124 33.358 39.7726 34.4698C40.2386 35.1483 40.729 35.8022 41.1868 36.4848C41.6405 37.1633 42.0615 37.8663 42.5111 38.5488C42.7972 38.9821 43.0996 39.4031 43.4021 39.824C43.8394 40.4371 44.2931 41.038 44.7263 41.6551C44.9675 42.0025 45.1678 42.3745 45.4089 42.7219C46.5942 44.4426 47.7836 46.1592 48.9811 47.8718C49.4103 48.489 49.8844 49.0734 50.3054 49.6947C50.7141 50.2996 51.0615 50.9495 51.4621 51.5585C51.8013 52.0776 52.1896 52.5639 52.5452 53.0748C53.2646 54.1089 53.9594 55.1593 54.691 56.1893C55.1569 56.8433 55.6678 57.4686 56.2523 58.2288C56.2523 57.9182 56.2523 57.7588 56.2523 57.5994C56.2523 54.7874 56.1992 51.9713 56.2809 49.1634C56.3136 48.023 55.8068 47.2138 55.2019 46.3759C54.7196 45.7097 54.2823 45.0107 53.8286 44.3241C53.7918 44.2669 53.7755 44.1974 53.7346 44.1442C53.285 43.5475 52.8027 42.9712 52.3817 42.354C51.9975 41.79 51.7032 41.1687 51.3272 40.6006C50.9185 39.9834 50.4485 39.4071 50.0193 38.8022C49.4757 38.0338 48.9525 37.245 48.4048 36.4766C47.5833 35.324 46.7332 34.1959 45.9239 33.0352C45.5397 32.4875 45.2209 31.8989 44.8735 31.3308C44.8408 31.2736 44.8285 31.2 44.7876 31.1469C44.3503 30.5624 43.8885 29.9943 43.4756 29.3934C43.0955 28.8417 42.7808 28.2449 42.4089 27.6891C41.9756 27.0474 41.5179 26.422 41.056 25.7967C40.7658 25.4043 40.447 25.0324 40.165 24.6359C40.0587 24.4847 40.0178 24.2885 39.9116 24.0269L39.9034 24.0187Z" fill="black"/>
</svg>
