<svg width="88" height="88" viewBox="0 0 88 88" fill="none" xmlns="http://www.w3.org/2000/svg">
<g clip-path="url(#clip0_496_6568)">
<path d="M44 88C68.3835 88 88 68.3835 88 44C88 19.6165 68.3835 0 44 0C19.6165 0 0 19.6165 0 44C0 68.3835 19.6165 88 44 88Z" fill="white"/>
<g clip-path="url(#clip1_496_6568)">
<path d="M58.1406 27H63.9219L51.8906 38.9125C47.5336 43.2242 40.4695 43.2242 36.1094 38.9125L24.0734 27H29.8594L39 36.0492C40.3318 37.3618 42.1266 38.0976 43.9965 38.0976C45.8664 38.0976 47.6612 37.3618 48.993 36.0492L58.1406 27Z" fill="black"/>
<path d="M29.7852 60.125H24L36.1094 48.1391C40.4664 43.8273 47.5305 43.8273 51.8906 48.1391L64 60.125H58.2188L49 51.0023C47.6682 49.6898 45.8734 48.954 44.0035 48.954C42.1336 48.954 40.3388 49.6898 39.007 51.0023L29.7852 60.125Z" fill="black"/>
</g>
</g>
<defs>
<clipPath id="clip0_496_6568">
<rect width="88" height="88" fill="white"/>
</clipPath>
<clipPath id="clip1_496_6568">
<rect width="40" height="33.125" fill="white" transform="translate(24 27)"/>
</clipPath>
</defs>
</svg>
